<?xml version="1.0" encoding="utf-8"?>
<!-- Generator: Adobe Illustrator 26.0.1, SVG Export Plug-In . SVG Version: 6.00 Build 0)  -->
<svg version="1.1" id="Layer_1" xmlns="http://www.w3.org/2000/svg" xmlns:xlink="http://www.w3.org/1999/xlink" x="0px" y="0px"
	 viewBox="0 0 262.52 86.47" style="enable-background:new 0 0 262.52 86.47;" xml:space="preserve">
<style type="text/css">
	.st0{fill:#009EE3;}
	.st1{fill:#A90D7F;}
	.st2{fill:#E5007D;}
	.st3{fill:#E95103;}
</style>
<path class="st0" d="M215.86,85.82c2.58-1.16,4.39-3.75,4.42-6.77l0.01-71.37c0.03-4.13-3.29-7.51-7.43-7.54s-7.52,3.29-7.55,7.43
	v71.37c-0.03,4.13,3.29,7.51,7.43,7.54C213.84,86.48,214.9,86.25,215.86,85.82"/>
<path class="st0" d="M231.05,29.21l-0.22,0.33l-9.02,13.42l9.02,13.42l18.02,26.83c2.33,3.41,7,4.28,10.41,1.95
	c3.41-2.33,4.29-6.99,1.96-10.4l-21.37-31.8l20.91-31.12c2.33-3.41,1.45-8.07-1.96-10.4c-3.41-2.33-8.08-1.46-10.41,1.95
	L231.05,29.21"/>
<path class="st1" d="M190.29,1.28c-1.3-0.88-2.77-1.23-4.23-1.23c-2.38,0.01-4.72,1.09-6.17,3.21l-27.71,41.36L124.48,3.26
	c-1.43-2.11-3.77-3.18-6.14-3.21c-1.47-0.01-2.95,0.34-4.25,1.23c-2.16,1.47-3.31,3.87-3.27,6.3c0,0.03,0,0.06,0,0.09l0.01,71.37
	c0.02,3.02,1.83,5.61,4.42,6.77c0.95,0.43,2.01,0.66,3.12,0.65c4.13-0.03,7.46-3.41,7.43-7.54l-0.01-46.83l20,29.85
	c1.49,2.19,3.94,3.34,6.41,3.27c2.47,0.07,4.92-1.08,6.41-3.27l20-29.85l-0.01,46.83c-0.03,4.13,3.29,7.51,7.43,7.54
	c1.11,0.01,2.17-0.23,3.12-0.65c2.58-1.16,4.39-3.75,4.42-6.77l0.01-71.37c0-0.03,0-0.06,0-0.09C193.6,5.15,192.45,2.75,190.29,1.28
	"/>
<path class="st2" d="M99.08,7.76c-0.02-2.35-1.13-4.43-2.83-5.79c-1.03-0.82-2.58-1.48-3.42-1.69c-1.08-0.27-2.85-0.4-4.13-0.14
	c-1.86,0.37-3.59,1.43-4.74,3.13L35,74.78c-2.32,3.42-1.44,8.07,1.98,10.4c0.92,0.63,1.93,1.02,2.96,1.19
	c2.8,0.47,5.74-0.68,7.44-3.17l36.73-53.64v49.69c0.02,3.02,1.84,5.4,4.42,6.57c0.95,0.43,2.01,0.66,3.12,0.65
	c4.13-0.03,7.46-3.21,7.43-7.34V7.76z"/>
<path class="st3" d="M61.79,1.28c-0.92-0.63-1.93-0.94-2.96-1.11c-2.79-0.47-5.74,0.6-7.44,3.09L14.96,56.47V7.54
	c0-4.43-3.01-7.5-7.48-7.5C3.2,0.04,0,3.11,0,7.54v71.23c0.03,3.93,3.16,7.26,7.05,7.54c2.89,0.62,5.99-0.51,7.76-3.11l48.97-71.51
	C66.09,8.26,65.21,3.61,61.79,1.28z"/>
</svg>
